<svg width="41" height="39" viewBox="0 0 41 39" fill="none" xmlns="http://www.w3.org/2000/svg">
<path fill-rule="evenodd" clip-rule="evenodd" d="M0.407704 0.471957C0.975479 -0.131303 1.92479 -0.16007 2.52805 0.407704L16.9746 14.0044C17.5778 14.5722 17.6066 15.5215 17.0388 16.1248C16.471 16.728 15.5217 16.7568 14.9185 16.189L0.471957 2.5923C-0.131303 2.02453 -0.16007 1.07522 0.407704 0.471957ZM23.3521 22.5666C23.9199 21.9633 24.8692 21.9346 25.4725 22.5024L39.919 36.0991C40.5223 36.6668 40.551 37.6161 39.9832 38.2194C39.4155 38.8227 38.4662 38.8514 37.8629 38.2837L23.4164 24.687C22.8131 24.1192 22.7844 23.1699 23.3521 22.5666ZM17.0388 22.5666C17.6066 23.1699 17.5778 24.1192 16.9746 24.687L2.52805 38.2837C1.92479 38.8514 0.975479 38.8227 0.407704 38.2194C-0.16007 37.6161 -0.131303 36.6668 0.471957 36.0991L14.9185 22.5024C15.5217 21.9346 16.471 21.9633 17.0388 22.5666ZM39.9516 2.56066C40.5374 1.97488 40.5374 1.02513 39.9516 0.439344C39.3658 -0.146442 38.4161 -0.146442 37.8303 0.439344L24.2336 14.0361C23.6478 14.6218 23.6478 15.5716 24.2336 16.1574C24.8194 16.7432 25.7691 16.7432 26.3549 16.1574L39.9516 2.56066Z" fill="#434E96"/>
</svg>
